<svg width="19.310196" height="21.910156" viewBox="0 0 19.3102 21.9102" fill="none" xmlns="http://www.w3.org/2000/svg" xmlns:xlink="http://www.w3.org/1999/xlink">
	<desc>
			Created with Pixso.
	</desc>
	<defs/>
	<path id="Vector" d="M11.2593 21.9102C9.65508 21.9102 8.16968 21.6406 6.80312 21.1021C5.43655 20.5435 4.23833 19.7749 3.20846 18.7974C2.19839 17.7998 1.40618 16.6323 0.831825 15.2954C0.277275 13.9585 0 12.5117 0 10.9551C0 9.37891 0.277275 7.93213 0.831825 6.61475C1.40618 5.27783 2.19839 4.12061 3.20846 3.14307C4.23833 2.16504 5.42665 1.39697 6.77341 0.837891C8.13997 0.279297 9.61547 0 11.1999 0C12.8635 0 14.3588 0.269531 15.6858 0.808105C17.0127 1.32715 18.1813 2.05518 19.1913 2.99316L15.6264 6.58496C15.1312 6.02637 14.5173 5.5874 13.7845 5.26807C13.0517 4.94873 12.1902 4.78906 11.1999 4.78906C10.3483 4.78906 9.56595 4.92871 8.85296 5.20801C8.15978 5.4873 7.55572 5.90674 7.04078 6.46533C6.52584 7.00391 6.11983 7.65283 5.82275 8.41064C5.54548 9.16895 5.40684 10.0171 5.40684 10.9551C5.40684 11.8931 5.54548 12.7412 5.82275 13.4995C6.11983 14.2573 6.52584 14.916 7.04078 15.4751C7.55572 16.0137 8.15978 16.4326 8.85296 16.7319C9.56595 17.0112 10.3483 17.1509 11.1999 17.1509C12.1902 17.1509 13.0616 17.0015 13.8142 16.7021C14.5668 16.3828 15.2105 15.9336 15.7452 15.355L19.3102 18.9468C18.2803 19.8848 17.1118 20.6133 15.8046 21.1318C14.5173 21.6509 13.0022 21.9102 11.2593 21.9102Z" fill="#000000" fill-opacity="1.000000" fill-rule="nonzero"/>
</svg>
