<svg width="18.136650" height="20.914251" viewBox="0 0 18.1367 20.9143" fill="none" xmlns="http://www.w3.org/2000/svg" xmlns:xlink="http://www.w3.org/1999/xlink">
	<desc>
			Created with Pixso.
	</desc>
	<defs/>
	<path id="Vector" d="M10.575 20.9143C9.06831 20.9143 7.67318 20.6571 6.38967 20.1429C5.10616 19.6095 3.98075 18.8762 3.01347 17.9428C2.06479 16.9905 1.32072 15.8762 0.781273 14.6C0.260422 13.3238 0 11.9429 0 10.4571C0 8.95238 0.260422 7.57143 0.781273 6.31428C1.32072 5.0381 2.06479 3.93333 3.01347 3C3.98075 2.06666 5.09686 1.33333 6.36176 0.799999C7.64528 0.266666 9.03111 0 10.5192 0C12.0817 0 13.4862 0.257143 14.7325 0.771429C15.9788 1.26667 17.0764 1.9619 18.025 2.85714L14.6767 6.28572C14.2116 5.75238 13.635 5.33333 12.9468 5.02857C12.2585 4.7238 11.4494 4.57143 10.5192 4.57143C9.7194 4.57143 8.9846 4.70476 8.31493 4.97143C7.66388 5.23809 7.09653 5.63809 6.61288 6.17143C6.12924 6.68571 5.74791 7.30476 5.46888 8.02857C5.20847 8.75238 5.07825 9.56193 5.07825 10.4571C5.07825 11.3524 5.20847 12.1619 5.46888 12.8858C5.74791 13.6095 6.12924 14.2381 6.61288 14.7715C7.09653 15.2857 7.66388 15.6857 8.31493 15.9714C8.9846 16.2381 9.7194 16.3715 10.5192 16.3715C11.4494 16.3715 12.2678 16.2286 12.9747 15.9429C13.6815 15.6381 14.2861 15.2095 14.7883 14.6571L18.1367 18.0857C17.1693 18.9809 16.0719 19.6762 14.8441 20.1714C13.635 20.6666 12.212 20.9143 10.575 20.9143Z" fill="#FFFFFF" fill-opacity="1.000000" fill-rule="nonzero"/>
</svg>
